<?xml version="1.0" encoding="utf-8"?>
<!-- Generator: Adobe Illustrator 24.0.0, SVG Export Plug-In . SVG Version: 6.00 Build 0)  -->
<svg version="1.1" id="Layer_1" xmlns="http://www.w3.org/2000/svg" xmlns:xlink="http://www.w3.org/1999/xlink" x="0px" y="0px"
	 viewBox="0 0 512 512" style="enable-background:new 0 0 512 512;" xml:space="preserve">
<style type="text/css">
	.st0{fill:#F7BE56;}
	.st1{fill:#27A2DB;}
	.st2{fill:#EBF0F3;}
	.st3{fill:#FCD462;}
	.st4{fill:#3A556A;}
	.st5{fill:#2F4859;}
	.st6{fill:#44C4A1;}
	.st7{fill:#3EA69B;}
</style>
<g>
	<path class="st0" d="M396.5,145.8l-22.7,7.6l-20.9-7.6V86.4h43.6V145.8z"/>
	<path class="st1" d="M447.3,160.1c-3.4-3.7-7.3-6.8-11.7-9.2l-28.1-15.4l-4.6-2.5l-2.7,0.5c-0.1,0.4-0.1,1-0.2,1.4l-26,17.8
		l-24.5-17.6c-0.1-0.5-0.1-1.1-0.2-1.6l-2.7-0.5l-4.5,2.5l-28.2,15.4c-4.4,2.4-8.3,5.5-11.7,9.2c-7.5,8.3-11.7,19-11.7,30.2v53
		c0,8.8,7.2,16,16,16h136.4c8.8,0,16-7.2,16-16v-53C458.9,179.1,454.8,168.3,447.3,160.1z"/>
	<g>
		<path class="st2" d="M396.5,121.8l-18,24.7l14.3,15.4l10-29L396.5,121.8z"/>
		<path class="st2" d="M352.8,121.8l18,24.7l-14.3,15.4l-10-29L352.8,121.8z"/>
		<path class="st2" d="M370.6,164.9v55.6h6.6v-55.6c0.9-13.6,5.6-17.4,5.6-17.4l-2.8-3l-5.9,7l-4.9-7l-4.2,3
			C365,147.5,369.7,151.3,370.6,164.9z"/>
	</g>
	<g>
		
			<ellipse transform="matrix(0.2599 -0.9656 0.9656 0.2599 218.5395 461.672)" class="st3" cx="410.5" cy="88.3" rx="9.9" ry="5.1"/>
		<ellipse transform="matrix(0.9656 -0.2599 0.2599 0.9656 -11.332 91.2191)" class="st3" cx="339.3" cy="88.5" rx="5.1" ry="9.9"/>
		<ellipse class="st3" cx="374.7" cy="79.7" rx="34.2" ry="45.9"/>
	</g>
	<path class="st4" d="M357.3,44.1c0,0,4.7,16.5,45.7,13.6c0,0,5.6,22.2,3.3,27.4c-2.4,5.2-2.4,18.8-2.4,18.8s6.9-12.4,8.1-22.8
		s6.5-20.2,1.5-33.8c-5-13.6-43.6-43.3-62.9-16.2c0,0-16.8,3.2-16.8,22.8s3.1,37.8,12,49.9l0.4-24l1.2-17.9
		C347.2,62,357.9,52.2,357.3,44.1z"/>
</g>
<g>
	<path class="st0" d="M177.1,148l-22.7,7.6l-20.9-7.6V88.7h43.6V148z"/>
	<path class="st1" d="M227.9,162.3c-3.4-3.7-7.3-6.8-11.7-9.2l-28.1-15.4l-4.6-2.5l-2.7,0.5c-0.1,0.4-0.1,1-0.2,1.4l-26,17.8
		l-24.5-17.6c-0.1-0.5-0.1-1.1-0.2-1.6l-2.7-0.5l-4.5,2.5l-28.2,15.4c-4.4,2.4-8.3,5.5-11.7,9.2c-7.5,8.3-11.7,19-11.7,30.2v53
		c0,8.8,7.2,16,16,16h136.4c8.8,0,16-7.2,16-16v-53C239.5,181.3,235.4,170.6,227.9,162.3z"/>
	<g>
		<path class="st2" d="M177.1,124l-18,24.7l14.3,15.4l10-29L177.1,124z"/>
		<path class="st2" d="M133.4,124l18,24.7l-14.3,15.4l-10-29L133.4,124z"/>
		<path class="st2" d="M151.2,167.1v55.6h6.6v-55.6c0.9-13.6,5.6-17.4,5.6-17.4l-2.8-3l-5.9,7l-4.9-7l-4.2,3
			C145.6,149.7,150.3,153.5,151.2,167.1z"/>
	</g>
	<g>
		
			<ellipse transform="matrix(0.2599 -0.9656 0.9656 0.2599 54.0138 251.4602)" class="st3" cx="191.1" cy="90.5" rx="9.9" ry="5.1"/>
		
			<ellipse transform="matrix(0.9656 -0.2599 0.2599 0.9656 -19.4501 34.2735)" class="st3" cx="119.9" cy="90.7" rx="5.1" ry="9.9"/>
		<ellipse class="st3" cx="155.3" cy="81.9" rx="34.2" ry="45.9"/>
	</g>
	<path class="st4" d="M137.9,46.3c0,0,4.7,16.5,45.7,13.6c0,0,5.6,22.2,3.3,27.4c-2.4,5.2-2.4,18.8-2.4,18.8s6.9-12.4,8.1-22.8
		c1.2-10.4,6.5-20.2,1.5-33.8c-5-13.6-43.6-43.3-62.9-16.2c0,0-16.8,3.2-16.8,22.8s3.1,37.8,12,49.9l0.4-24l1.2-17.9
		C127.8,64.2,138.5,54.4,137.9,46.3z"/>
</g>
<g>
	<path class="st5" d="M323.6,147.3l11.9,60.6l-46.7-2.3H198l8.6-49.8L323.6,147.3z"/>
	<path class="st0" d="M291.5,173l-6.8-4.3v-37.9h-39.1v37.9l-6.8,4.3l-4.1,6.1l8.9,10.6c0,0,9.4,7.3,10.4,7.3c0.9,0,9.1,1.2,9.8,1.2
		c0.7,0,7.1,0.7,9.2-0.5c2.1-1.2,6.5-4.2,7.6-4.6c1.1-0.4,8.4-7.3,8.7-7.8c0.4-0.5,4.9-9.2,4.9-9.2L291.5,173z"/>
	<path class="st6" d="M330.1,196.7c-3-3.3-6.5-6.1-10.5-8.2l-21.7-11.9l-2.4-1.3c-0.1,0.3-0.2,0.6-0.3,0.9
		c-5.7,11.9-18.6,22.4-32.3,22c-13.8-0.4-22.8-11.1-29.5-22.1l-1.1,0.6l-21.7,11.9c-3.9,2.2-7.4,4.9-10.4,8.2
		c-6.7,7.4-10.4,17-10.4,27v47.5c0,7.9,6.4,14.3,14.3,14.3h122.2c7.9,0,14.3-6.4,14.3-14.3v-47.5
		C340.6,213.8,336.8,204.2,330.1,196.7z"/>
	<path class="st2" d="M294.5,174.7l-3-1.7c-1.9,12.9-13,22.7-26.4,22.7c-13.4,0-24.4-9.8-26.4-22.6l-2.9,1.6l-3.5,1.9
		c3.4,14.9,16.8,26,32.8,26c16,0,29.3-11.1,32.8-26L294.5,174.7z"/>
	<path class="st7" d="M222.8,285.6v-32.7l6,32.7H222.8z"/>
	<path class="st7" d="M307.5,285.6v-32.7l-6,32.7H307.5z"/>
	<ellipse class="st3" cx="267" cy="127.3" rx="39.3" ry="36.6"/>
	<path class="st5" d="M308.5,93c-5.6-14.9-12.8-30.5-23.1-34.4c-10.3-3.9-18,2.6-19.7,2.6c-1.7,0-9.4-6.5-19.7-2.6
		c-10.3,3.9-17.5,19.5-23.1,34.4c0,0-16.4,48.4-16.4,65.7c0,17.2,14.3,19.8,21.1,18.9c6.8-1,17.9-8.9,17.9-8.9l-0.1-11
		c0,0-15.6-22.2-13.3-35c2.3-12.8,32.2-6.7,33.5-35.5c2.9,31.6,31.2,22.6,33.5,35.5c2.3,12.8-14.8,37.4-14.8,37.4l0.3,8.6
		c0,0,12.2,7.9,19.1,8.9c6.8,1,21.1-1.6,21.1-18.9C324.9,141.5,308.5,93,308.5,93z"/>
</g>
</svg>
